<svg xmlns="http://www.w3.org/2000/svg" viewBox="0 0 960 640">
  <defs>
    <linearGradient id="g" x1="0" y1="0" x2="1" y2="1">
      <stop offset="0%" stop-color="#6366f1"/>
      <stop offset="100%" stop-color="#9333ea"/>
    </linearGradient>
    <filter id="blur"><feGaussianBlur stdDeviation="8"/></filter>
  </defs>
  <rect width="960" height="640" fill="#0b1220"/>
  <g opacity="0.12">
    <circle cx="820" cy="140" r="120" fill="url(#g)" filter="url(#blur)"/>
    <circle cx="120" cy="540" r="140" fill="url(#g)" filter="url(#blur)"/>
  </g>
  <g transform="translate(120,96)">
    <rect x="0" y="0" width="720" height="448" rx="20" fill="#0f172a" stroke="#1f2937"/>
    <rect x="24" y="28" width="672" height="36" rx="10" fill="url(#g)"/>
    <rect x="24" y="88" width="280" height="18" rx="7" fill="#1f2937"/>
    <rect x="24" y="116" width="220" height="18" rx="7" fill="#1f2937"/>
    <rect x="24" y="160" width="312" height="170" rx="12" fill="#111827"/>
    <rect x="360" y="160" width="312" height="170" rx="12" fill="#111827"/>
    <rect x="24" y="350" width="200" height="18" rx="7" fill="#1f2937"/>
    <rect x="24" y="378" width="260" height="18" rx="7" fill="#1f2937"/>
    <g transform="translate(546,116)">
      <circle cx="0" cy="0" r="26" fill="#0b1220" stroke="#a78bfa" stroke-width="3"/>
      <path d="M-10 0 h20" stroke="#a78bfa" stroke-width="3" stroke-linecap="round"/>
    </g>
  </g>
</svg>
